<?xml version="1.0" standalone="no"?>
<!DOCTYPE svg PUBLIC "-//W3C//DTD SVG 20010904//EN"
 "http://www.w3.org/TR/2001/REC-SVG-20010904/DTD/svg10.dtd">
<svg version="1.0" xmlns="http://www.w3.org/2000/svg"
 width="240.000000pt" height="240.000000pt" viewBox="0 0 240.000000 240.000000"
 preserveAspectRatio="xMidYMid meet">
<metadata>
Created by potrace 1.11, written by Peter Selinger 2001-2013
</metadata>
<g transform="translate(0.000000,240.000000) scale(0.100000,-0.100000)"
fill="#000000" stroke="none">
<path d="M519 2310 c-31 -25 -12 -26 21 0 14 11 20 20 14 20 -7 0 -22 -9 -35
-20z"/>
<path d="M650 2300 c0 -5 5 -10 10 -10 6 0 10 5 10 10 0 6 -4 10 -10 10 -5 0
-10 -4 -10 -10z"/>
<path d="M447 2271 c-15 -10 -36 -26 -46 -37 -20 -22 -24 -54 -7 -54 6 0 3 -5
-6 -11 -27 -15 -18 -111 15 -173 29 -55 26 -80 -9 -73 -37 7 -28 -10 9 -18 17
-4 26 -9 19 -12 -10 -4 -9 -9 4 -24 24 -26 31 -24 31 11 0 17 -3 30 -7 30 -4
0 -10 17 -13 39 -2 21 -13 51 -23 66 -17 26 -29 125 -15 125 4 0 15 25 26 55
10 30 24 55 31 55 11 0 28 29 21 36 -1 2 -15 -5 -30 -15z"/>
<path d="M696 2277 c3 -10 9 -15 12 -12 3 3 0 11 -7 18 -10 9 -11 8 -5 -6z"/>
<path d="M608 2236 c-15 -18 -17 -19 -18 -3 0 9 -5 17 -11 17 -5 0 -7 -6 -3
-12 5 -8 0 -7 -11 2 -17 14 -18 13 -11 -5 5 -11 13 -38 19 -60 5 -22 21 -50
35 -62 14 -13 21 -23 15 -23 -5 0 -20 11 -33 25 -13 14 -28 25 -33 25 -6 0 0
-11 13 -25 13 -14 20 -28 17 -32 -4 -3 0 -15 10 -25 9 -10 13 -18 8 -18 -4 0
-2 -7 5 -15 7 -9 10 -18 7 -22 -4 -3 -1 -15 5 -26 9 -17 8 -19 -6 -14 -26 10
-18 -9 8 -21 18 -8 27 -23 34 -54 11 -55 -1 -71 -43 -59 l-30 9 27 1 c24 1 25
3 15 25 -7 14 -23 31 -38 40 -14 8 -34 31 -44 50 -17 32 -42 52 -52 43 -2 -2
10 -30 26 -62 17 -32 27 -63 24 -68 -7 -12 -26 8 -30 34 -2 12 -15 35 -30 53
-14 17 -33 47 -41 66 -8 19 -17 29 -19 22 -3 -6 6 -32 20 -56 13 -24 27 -59
31 -79 5 -28 46 -85 46 -64 0 3 11 -5 25 -19 20 -20 23 -29 15 -39 -6 -8 -19
-11 -27 -8 -11 5 -14 3 -8 -6 4 -8 21 -11 40 -9 23 3 36 -1 43 -13 9 -14 6
-19 -19 -28 -18 -6 -27 -6 -24 -1 4 6 13 10 21 10 31 0 12 20 -21 21 -19 1
-39 3 -45 4 -5 1 -15 3 -20 4 -6 0 -10 7 -8 14 3 14 -44 67 -61 67 -14 0 -14
-6 -1 -30 9 -16 8 -18 -5 -14 -9 4 -24 23 -35 43 -15 28 -19 31 -20 15 0 -27
44 -72 95 -95 35 -16 37 -19 15 -19 l-25 -1 24 -19 c13 -11 37 -21 55 -21 30
-2 30 -2 4 -6 -39 -6 -35 -21 5 -17 23 3 28 1 17 -6 -8 -5 -25 -10 -37 -10
-13 0 -23 -4 -23 -10 0 -12 45 -24 62 -15 7 3 2 -2 -11 -12 -14 -10 -38 -24
-54 -31 -26 -10 -28 -10 -17 2 7 9 8 21 3 29 -7 13 -13 12 -41 -3 -18 -10 -29
-21 -24 -24 5 -3 18 1 28 9 33 25 37 16 10 -20 -14 -19 -26 -38 -25 -42 3 -18
-2 -33 -17 -48 -9 -9 -14 -18 -11 -21 2 -3 15 9 28 26 59 77 64 80 114 89 l50
9 -24 -19 c-13 -10 -31 -19 -40 -19 -18 0 -57 -37 -85 -81 -15 -23 -15 -27 -2
-32 10 -4 25 6 42 29 15 19 29 32 32 30 2 -3 -3 -12 -12 -21 -23 -23 -39 -59
-65 -142 -13 -39 -32 -80 -42 -89 -23 -21 -25 -42 -2 -23 35 29 73 93 73 123
0 17 9 46 20 64 11 17 17 32 13 32 -4 0 3 10 15 23 18 19 19 24 7 41 -17 22
-11 36 14 36 10 0 30 9 45 21 33 26 34 14 1 -17 -32 -30 -32 -36 2 -23 34 13
86 68 103 109 7 17 18 29 24 27 6 -2 19 0 30 5 13 7 16 7 12 -1 -10 -15 5 -13
28 4 11 8 28 15 38 15 10 0 18 5 18 10 0 6 7 10 15 10 13 0 15 7 9 35 -5 27
-3 36 10 41 9 3 16 12 16 20 0 8 5 14 10 14 6 0 10 5 10 10 0 14 -48 -18 -90
-60 -20 -20 -43 -34 -52 -32 -10 2 -18 -1 -18 -7 0 -6 -4 -11 -10 -11 -20 0
-9 20 14 26 32 8 59 47 44 62 -8 8 -5 9 10 5 13 -3 31 3 48 16 28 22 56 66 47
75 -3 2 -2 10 2 16 5 8 10 8 20 0 10 -9 15 -6 20 11 7 21 -12 46 -25 32 -3 -3
1 -8 8 -10 6 -3 12 -9 12 -14 0 -4 -7 -6 -16 -2 -10 4 -22 -1 -29 -11 -11 -14
-13 -15 -19 -1 -9 25 -31 17 -32 -13 -2 -46 -14 -83 -25 -77 -6 4 -6 12 -1 18
5 7 10 28 11 47 1 19 2 42 3 50 1 8 0 31 -1 50 -1 27 -4 31 -11 20 -7 -11 -10
-7 -10 18 0 22 -5 32 -15 32 -8 0 -15 9 -15 19 0 11 -9 22 -19 26 -11 3 -31
22 -46 41 -34 44 -46 37 -14 -8 18 -26 19 -30 4 -18 -10 8 -27 35 -38 60 -17
38 -21 42 -27 25 -7 -17 -8 -15 -11 11 -4 32 -4 32 -21 10z m159 -158 c-3 -8
-6 -5 -6 6 -1 11 2 17 5 13 3 -3 4 -12 1 -19z m-33 -294 c3 -8 2 -12 -4 -9 -6
3 -10 10 -10 16 0 14 7 11 14 -7z m-16 -17 c8 -10 6 -13 -9 -14 -19 -2 -25 8
-12 20 8 9 9 9 21 -6z m-48 -74 c-1 -13 -33 -47 -62 -66 -42 -27 -47 -20 -6 8
20 14 39 34 43 45 6 19 25 29 25 13z m-160 -166 c0 -2 -10 -12 -22 -23 l-23
-19 19 23 c18 21 26 27 26 19z"/>
<path d="M740 2229 c7 -11 14 -19 16 -16 7 7 -7 37 -17 37 -6 0 -5 -9 1 -21z"/>
<path d="M869 2197 c-13 -12 -32 -33 -42 -47 -17 -24 -17 -24 -12 -2 4 14 2
22 -5 22 -8 0 -10 -9 -6 -27 4 -16 7 -34 8 -40 1 -7 5 -13 8 -13 4 0 10 -13
14 -30 3 -16 10 -30 16 -30 14 0 13 27 -2 32 -7 3 -12 21 -11 42 1 28 9 47 34
72 17 18 41 35 53 37 17 4 16 5 -5 6 -15 0 -36 -9 -50 -22z"/>
<path d="M1008 2213 c7 -3 16 -2 19 1 4 3 -2 6 -13 5 -11 0 -14 -3 -6 -6z"/>
<path d="M772 2198 c2 -6 10 -14 16 -16 7 -2 10 2 6 12 -7 18 -28 22 -22 4z"/>
<path d="M1060 2191 c0 -5 14 -14 30 -20 17 -5 39 -25 51 -45 12 -20 25 -36
30 -36 5 0 9 -6 9 -14 0 -7 11 -29 25 -49 22 -33 19 -57 -5 -42 -5 3 -18 1
-29 -4 -15 -8 -20 -7 -25 5 -3 8 -10 12 -16 9 -5 -3 -10 -1 -10 5 0 7 -6 10
-14 7 -8 -3 -22 1 -33 9 -17 13 -17 14 2 8 19 -7 19 -6 2 12 -15 17 -19 17
-28 4 -8 -13 -12 -12 -25 5 l-16 20 4 -20 c2 -13 -2 -19 -11 -17 -9 2 -11 -3
-7 -13 3 -9 2 -13 -4 -10 -6 3 -10 14 -10 25 0 10 -7 20 -15 24 -8 3 -15 1
-15 -4 0 -6 -9 -10 -20 -10 -17 0 -19 -3 -10 -19 7 -14 6 -21 -3 -24 -33 -12
61 -29 171 -30 67 -1 122 -5 122 -9 0 -5 8 -8 18 -8 14 0 14 2 3 9 -28 18 23
17 84 -1 33 -10 68 -18 78 -18 9 0 17 -8 17 -17 0 -14 2 -15 9 -4 14 22 133 8
184 -23 59 -35 122 -97 163 -162 42 -66 87 -109 131 -126 21 -8 30 -16 26 -27
-4 -12 -2 -13 4 -3 8 10 19 9 56 -5 36 -13 44 -20 35 -30 -8 -10 -6 -13 6 -13
9 0 16 -5 16 -11 0 -5 5 -7 11 -3 6 3 15 0 20 -7 7 -11 9 -12 9 -1 0 8 -9 16
-20 19 -11 3 -20 9 -20 14 0 5 32 -7 70 -26 39 -19 70 -41 70 -48 0 -9 -2 -9
-8 0 -5 8 -12 9 -22 2 -13 -8 -13 -10 0 -18 11 -8 -2 -25 -65 -85 -44 -42 -75
-76 -69 -76 6 0 16 -17 22 -39 15 -48 15 -61 1 -61 -5 0 -36 -17 -67 -38 -51
-34 -61 -38 -91 -30 -31 9 -32 10 -15 24 18 15 18 15 -4 10 -29 -6 -54 3 -46
16 7 11 -84 8 -108 -4 -10 -5 -25 -22 -33 -38 -18 -35 -19 -44 -3 -34 7 4 8 3
4 -4 -11 -19 5 -14 21 6 11 15 12 13 1 -13 -7 -16 -26 -47 -42 -67 -16 -21
-27 -40 -25 -42 8 -9 55 40 68 72 7 17 17 29 22 27 4 -3 -1 -21 -11 -41 -25
-43 -26 -61 -3 -43 15 13 15 12 5 -8 -16 -30 -15 -38 3 -23 8 7 15 18 15 25 0
7 7 18 15 25 12 10 15 10 15 -1 0 -9 7 -5 18 8 11 15 21 20 31 14 16 -10 4
-34 -14 -28 -18 7 -88 -88 -90 -124 -3 -34 12 -39 18 -6 3 16 5 13 6 -10 1
-37 8 -41 28 -15 8 9 12 11 8 5 -3 -7 -1 -13 4 -13 6 0 11 9 11 20 0 11 4 20
8 20 4 0 15 13 25 29 15 27 22 29 94 33 48 3 97 14 126 27 27 12 72 24 100 27
29 4 60 13 69 22 22 19 23 55 3 76 -22 21 -19 28 13 25 60 -6 92 25 76 74 -13
38 -4 98 16 116 10 9 21 31 25 48 5 27 2 37 -18 56 -14 12 -38 29 -54 37 -15
8 -62 33 -103 56 -41 23 -118 58 -170 79 -114 45 -178 91 -204 145 -21 45 -97
126 -157 170 -39 28 -60 34 -169 45 -73 8 -112 15 -122 21 -4 3 -16 7 -25 9
-55 11 -74 26 -100 82 -26 54 -70 103 -117 130 -25 15 -36 16 -36 4z m1245
-792 c10 -15 -1 -22 -24 -14 -12 3 -19 11 -16 16 8 12 32 11 40 -2z m-159
-131 c0 -12 -9 -31 -19 -40 -30 -27 -34 -21 -6 8 l24 27 -24 -13 c-19 -10 -25
-10 -32 1 -6 11 -11 10 -23 -6 -9 -11 -16 -15 -16 -9 0 6 7 17 15 24 8 7 12
16 10 21 -3 4 0 17 7 28 12 19 13 19 38 1 15 -11 26 -28 26 -42z m52 -39 c9
-1 20 -1 25 0 12 2 8 -9 -10 -27 -16 -16 -16 -16 -10 1 10 27 -8 20 -21 -8
-13 -27 -42 -34 -42 -10 0 8 -6 15 -12 15 -9 0 -8 4 2 10 23 15 29 12 23 -12
-5 -23 -5 -23 10 -3 9 11 14 29 13 40 -2 11 -1 14 1 8 3 -7 12 -14 21 -14z
m-488 -93 c0 -8 -7 -16 -15 -20 -12 -4 -13 -2 -2 14 14 24 17 25 17 6z m294 0
c-3 -7 -17 -18 -32 -25 -27 -11 -27 -11 3 14 35 29 36 29 29 11z m-244 -86 c0
-5 -8 -10 -17 -10 -15 0 -16 2 -3 10 19 12 20 12 20 0z m120 -6 c0 -20 -37
-64 -55 -64 -17 0 -15 4 13 26 18 14 30 30 27 35 -4 5 -1 9 4 9 6 0 11 -3 11
-6z m30 -35 c-17 -30 -7 -32 26 -7 16 12 24 16 17 8 -6 -7 -9 -19 -6 -26 6
-15 -31 -19 -62 -8 -14 6 -13 9 6 30 28 30 33 30 19 3z m110 -29 c-8 -5 -22
-9 -30 -9 -10 0 -8 3 5 9 27 12 43 12 25 0z m-140 -14 c0 -2 -9 -6 -20 -9 -11
-3 -18 -1 -14 4 5 9 34 13 34 5z"/>
<path d="M2100 1269 c0 -5 5 -7 10 -4 6 3 10 8 10 11 0 2 -4 4 -10 4 -5 0 -10
-5 -10 -11z"/>
<path d="M936 2135 c-20 -15 -14 -37 8 -29 14 5 30 44 18 44 -4 0 -15 -7 -26
-15z"/>
<path d="M980 2136 c-9 -12 -8 -15 7 -14 10 1 33 -2 51 -6 42 -10 41 7 -1 22
-42 15 -42 15 -57 -2z"/>
<path d="M881 2101 c-16 -14 -21 -26 -16 -40 8 -25 21 -27 29 -5 3 8 10 13 15
10 15 -10 23 27 8 41 -11 11 -17 10 -36 -6z"/>
<path d="M530 2106 c0 -3 5 -17 10 -32 10 -25 9 -26 -6 -13 -16 13 -17 11 -11
-20 8 -38 35 -86 44 -77 3 3 -2 17 -11 30 -9 14 -16 31 -16 38 0 7 8 1 18 -14
9 -16 22 -28 29 -28 8 0 3 14 -12 36 -14 20 -25 47 -25 60 0 13 -4 24 -10 24
-5 0 -10 -2 -10 -4z"/>
<path d="M1090 2089 c0 -5 5 -7 10 -4 6 3 10 8 10 11 0 2 -4 4 -10 4 -5 0 -10
-5 -10 -11z"/>
<path d="M870 2015 c0 -8 8 -11 20 -8 11 3 20 7 20 8 0 1 -9 5 -20 8 -12 3
-20 0 -20 -8z"/>
<path d="M1295 1930 c-18 -8 -17 -9 7 -9 15 -1 30 4 33 9 7 12 -12 12 -40 0z"/>
<path d="M1010 1920 c0 -4 -14 -12 -31 -15 -23 -5 -28 -9 -18 -16 10 -6 6 -9
-14 -9 -16 0 -26 -4 -22 -10 3 -5 0 -10 -7 -10 -10 0 -11 -2 0 -8 13 -9 6 -42
-9 -42 -5 0 -9 -4 -9 -9 0 -6 15 -4 33 4 31 13 35 12 50 -6 9 -10 25 -19 35
-19 10 0 27 -7 38 -15 27 -20 42 -19 21 2 -10 10 -34 22 -54 28 -51 14 -53 32
-3 37 23 2 44 0 46 -4 3 -4 -12 -8 -33 -9 l-38 -1 30 -10 c17 -5 37 -12 45
-15 8 -3 31 -6 50 -7 39 -2 85 -19 95 -36 3 -5 10 -8 14 -6 4 3 17 -3 28 -14
19 -17 22 -17 38 -2 16 16 16 16 4 -5 -22 -36 1 -46 36 -16 20 17 26 27 17 30
-10 4 -9 8 4 18 26 19 25 42 -1 48 -13 2 -30 0 -37 -4 -9 -6 -3 -9 17 -10 l30
-1 -32 -9 c-18 -5 -39 -19 -47 -31 -15 -21 -16 -21 -22 -2 -17 51 -33 87 -33
74 -1 -10 -6 -7 -17 8 -8 12 -20 22 -26 22 -6 0 -5 -7 3 -17 13 -17 12 -17 -6
-2 -27 22 -70 36 -60 19 9 -15 -9 -6 -39 19 -18 15 -19 15 -13 -3 6 -15 4 -17
-10 -11 -10 4 -29 10 -43 12 -23 5 -24 4 -6 -9 16 -13 14 -14 -27 -14 -29 0
-43 4 -41 11 5 13 74 51 86 48 15 -5 8 15 -7 21 -8 3 -15 1 -15 -4z"/>
<path d="M1368 1923 c-10 -2 -18 -8 -18 -13 0 -4 9 -6 20 -3 11 3 20 9 20 14
0 5 -1 8 -2 8 -2 -1 -11 -3 -20 -6z"/>
<path d="M314 1882 c5 -8 66 -4 66 4 0 2 -16 4 -36 4 -19 0 -33 -4 -30 -8z"/>
<path d="M1615 1860 c3 -5 8 -10 11 -10 2 0 4 5 4 10 0 6 -5 10 -11 10 -5 0
-7 -4 -4 -10z"/>
<path d="M292 1853 c-36 -7 -17 -20 24 -15 25 3 32 7 23 13 -8 5 -16 8 -19 7
-3 0 -15 -3 -28 -5z"/>
<path d="M1388 1853 c7 -3 16 -2 19 1 4 3 -2 6 -13 5 -11 0 -14 -3 -6 -6z"/>
<path d="M1294 1825 c-20 -15 -11 -18 20 -6 11 4 15 10 9 14 -5 3 -19 0 -29
-8z"/>
<path d="M241 1811 c-23 -15 3 -20 29 -5 22 12 23 13 5 13 -11 1 -26 -3 -34
-8z"/>
<path d="M320 1795 c0 -8 -7 -15 -16 -15 -8 0 -12 -4 -9 -10 12 -19 31 -10 33
15 1 14 0 25 -3 25 -3 0 -5 -7 -5 -15z"/>
<path d="M350 1789 c0 -16 47 -66 54 -58 2 2 -9 20 -25 39 -18 21 -29 28 -29
19z"/>
<path d="M1444 1785 c21 -16 32 -13 21 4 -3 6 -14 11 -23 11 -15 -1 -15 -2 2
-15z"/>
<path d="M244 1780 c-12 -5 -25 -13 -28 -18 -9 -15 31 -2 45 14 13 16 12 16
-17 4z"/>
<path d="M935 1779 c4 -6 9 -8 12 -5 3 2 16 1 29 -4 13 -5 24 -6 24 -1 0 11
-25 21 -51 21 -12 0 -17 -4 -14 -11z"/>
<path d="M874 1759 c-3 -6 -3 -14 2 -18 15 -10 40 -45 27 -38 -6 4 -14 3 -18
-3 -3 -5 -1 -10 4 -10 6 0 11 -6 11 -14 0 -8 5 -18 11 -22 9 -5 10 1 5 20 -4
18 -3 25 4 21 5 -3 10 -14 10 -23 0 -9 5 -24 10 -32 8 -12 10 -9 10 12 0 15
-6 33 -13 40 -18 19 -48 68 -42 68 3 0 19 -7 35 -15 17 -9 30 -12 30 -7 0 10
-44 32 -65 32 -8 0 -17 -5 -21 -11z"/>
<path d="M1685 1760 c3 -5 8 -10 11 -10 2 0 4 5 4 10 0 6 -5 10 -11 10 -5 0
-7 -4 -4 -10z"/>
<path d="M970 1755 c0 -3 14 -19 30 -37 31 -32 38 -31 20 2 -10 19 -50 47 -50
35z"/>
<path d="M1020 1754 c0 -5 7 -18 15 -28 12 -16 15 -17 15 -4 0 8 -7 21 -15 28
-8 7 -15 9 -15 4z"/>
<path d="M1112 1741 c7 -11 16 -17 20 -14 10 5 -10 33 -23 33 -5 0 -4 -9 3
-19z"/>
<path d="M1145 1743 c4 -10 9 -26 12 -35 4 -15 7 -15 19 -3 18 18 18 35 -1 35
-8 0 -15 5 -15 10 0 6 -5 10 -11 10 -7 0 -8 -7 -4 -17z"/>
<path d="M1380 1750 c-12 -8 -10 -10 10 -10 20 0 22 -2 10 -10 -11 -7 -11 -10
-2 -10 7 0 11 -4 8 -9 -3 -4 -16 -6 -28 -4 -13 2 -32 -3 -43 -12 -19 -16 -19
-16 5 -9 14 4 38 8 53 9 29 2 64 25 37 25 -7 0 -10 3 -7 7 7 6 -11 33 -22 33
-3 0 -13 -5 -21 -10z"/>
<path d="M184 1725 c-14 -11 -15 -14 -4 -14 8 0 24 6 34 14 15 11 16 15 5 15
-8 0 -24 -7 -35 -15z"/>
<path d="M1486 1731 c-7 -11 22 -23 35 -15 5 3 5 -5 0 -19 -6 -14 -7 -27 -4
-31 3 -3 -7 -4 -22 -3 -15 1 -30 -4 -32 -11 -3 -7 1 -10 11 -6 9 3 16 1 16 -5
0 -7 14 -18 32 -25 l31 -14 -41 -3 c-22 -3 -38 -1 -36 3 3 5 -1 8 -8 8 -9 0
-9 3 2 10 13 8 12 10 -2 10 -21 0 -21 -2 -7 -33 8 -17 8 -31 1 -43 -9 -16 -10
-16 -17 5 -3 11 -11 19 -16 16 -5 -4 -5 5 1 20 12 32 12 38 1 31 -5 -4 -4 5 2
19 7 14 18 25 25 25 6 0 12 5 12 10 0 6 7 10 15 10 8 0 15 5 15 11 0 19 -52 0
-84 -32 -29 -28 -25 -42 4 -16 8 6 5 1 -6 -13 -24 -29 -34 -117 -12 -104 7 4
5 -2 -6 -14 -10 -12 -16 -28 -12 -37 4 -12 -6 -22 -42 -37 -26 -12 -41 -23
-34 -26 16 -5 115 51 121 69 4 12 1 12 -15 -1 -17 -12 -17 -12 -6 0 14 16 62
22 62 8 0 -4 7 -8 15 -8 17 0 21 45 5 55 -22 14 -8 23 35 23 25 -1 45 -6 45
-12 0 -6 5 -5 12 2 15 15 31 16 22 1 -3 -6 0 -15 7 -20 10 -6 11 -9 2 -9 -15
0 -16 -55 -2 -85 7 -15 8 -9 4 22 -3 24 -1 45 5 48 6 4 8 21 4 43 -6 33 -5 36
8 24 13 -10 17 -10 21 0 4 10 6 10 6 1 1 -7 5 -13 11 -13 5 0 7 7 3 16 -4 11
-18 15 -47 14 -66 -3 -73 -1 -47 14 14 8 32 11 40 8 10 -3 7 5 -8 21 -14 15
-19 27 -12 27 16 0 -21 39 -54 56 -31 16 -51 18 -59 5z m71 -57 c-3 -3 -12 -4
-19 -1 -8 3 -5 6 6 6 11 1 17 -2 13 -5z m10 -30 c-3 -3 -12 -4 -19 -1 -8 3 -5
6 6 6 11 1 17 -2 13 -5z"/>
<path d="M1081 1718 c1 -27 15 -52 23 -40 4 6 2 21 -4 32 -12 23 -20 26 -19 8z"/>
<path d="M1675 1720 c3 -5 8 -10 11 -10 2 0 4 5 4 10 0 6 -5 10 -11 10 -5 0
-7 -4 -4 -10z"/>
<path d="M205 1701 c-37 -23 -101 -89 -93 -96 3 -3 25 14 49 38 24 24 53 49
64 55 11 6 17 13 14 16 -3 3 -18 -3 -34 -13z"/>
<path d="M300 1710 c0 -5 5 -10 10 -10 6 0 10 5 10 10 0 6 -4 10 -10 10 -5 0
-10 -4 -10 -10z"/>
<path d="M360 1710 c18 -11 70 -13 70 -2 0 4 -19 8 -43 9 -30 2 -38 0 -27 -7z"/>
<path d="M1206 1712 c-2 -4 -1 -14 5 -22 7 -12 9 -10 9 8 0 23 -5 28 -14 14z"/>
<path d="M980 1704 c0 -5 7 -19 15 -30 8 -10 15 -14 15 -8 0 5 -7 19 -15 30
-8 10 -15 14 -15 8z"/>
<path d="M1237 1690 c-3 -11 -2 -20 3 -20 12 0 21 28 11 35 -5 2 -11 -4 -14
-15z"/>
<path d="M1740 1702 c0 -7 -4 -10 -10 -7 -5 3 -10 1 -10 -5 0 -7 6 -10 13 -7
6 2 17 -3 24 -12 7 -9 13 -11 13 -5 0 5 -7 19 -15 30 -9 12 -14 14 -15 6z"/>
<path d="M1052 1680 c-9 -15 -8 -21 5 -32 14 -11 16 -10 11 9 -3 12 -1 24 5
26 7 2 7 6 1 10 -5 3 -15 -3 -22 -13z"/>
<path d="M356 1681 l-28 -6 31 -12 c17 -6 31 -7 31 -2 0 5 15 8 33 8 21 -1 25
-3 12 -6 -38 -9 -42 -26 -5 -18 41 9 47 12 34 24 -12 12 -72 18 -108 12z"/>
<path d="M850 1687 c0 -4 6 -16 13 -27 10 -17 9 -22 -1 -29 -11 -6 -10 -14 2
-42 l16 -34 -5 38 c-4 22 -2 37 5 37 5 0 10 4 10 9 0 11 -39 59 -40 48z"/>
<path d="M260 1672 c0 -4 11 -9 25 -10 14 -1 25 3 25 8 0 6 -11 10 -25 10 -14
0 -25 -4 -25 -8z"/>
<path d="M1120 1661 c0 -30 -1 -34 -11 -53 -6 -12 -6 -18 1 -18 5 0 10 5 10
10 0 6 7 10 15 10 8 0 15 -5 15 -11 0 -5 4 -7 10 -4 5 3 20 8 32 10 22 4 22 4
4 -10 -29 -22 -12 -30 18 -9 15 9 24 19 21 22 -8 8 26 42 42 42 7 0 13 5 13
10 0 14 -12 12 -40 -7 -30 -21 -73 -24 -65 -5 3 8 2 19 -2 25 -4 7 -9 3 -13
-11 -3 -13 -9 -23 -14 -22 -5 1 -13 -4 -18 -12 -7 -9 -8 -4 -4 14 3 15 2 30
-4 33 -5 3 -10 -3 -10 -14z"/>
<path d="M1365 1670 c-3 -5 -2 -10 4 -10 5 0 13 5 16 10 3 6 2 10 -4 10 -5 0
-13 -4 -16 -10z"/>
<path d="M820 1656 c0 -8 5 -18 10 -21 6 -3 10 3 10 14 0 12 -4 21 -10 21 -5
0 -10 -6 -10 -14z"/>
<path d="M967 1638 c4 -20 3 -29 -4 -25 -13 8 -26 -63 -14 -77 5 -6 5 -20 0
-31 -10 -27 -11 -35 0 -35 8 0 17 24 27 74 2 11 8 24 14 30 19 19 10 29 -10
11 -20 -18 -21 -18 -14 1 4 10 10 24 14 29 8 10 -5 55 -14 55 -3 0 -3 -14 1
-32z"/>
<path d="M1620 1660 c0 -5 5 -10 11 -10 5 0 7 5 4 10 -3 6 -8 10 -11 10 -2 0
-4 -4 -4 -10z"/>
<path d="M170 1640 c-14 -10 -22 -21 -19 -24 2 -3 18 6 34 19 35 29 22 33 -15
5z"/>
<path d="M790 1645 c0 -8 5 -15 10 -15 6 0 10 7 10 15 0 8 -4 15 -10 15 -5 0
-10 -7 -10 -15z"/>
<path d="M1085 1650 c3 -5 8 -10 11 -10 2 0 4 5 4 10 0 6 -5 10 -11 10 -5 0
-7 -4 -4 -10z"/>
<path d="M1300 1645 c-16 -19 0 -19 26 0 16 12 16 14 3 15 -9 0 -22 -7 -29
-15z"/>
<path d="M254 1639 c-3 -5 7 -9 21 -9 15 0 35 -5 47 -11 18 -10 38 -6 27 5
-11 11 -90 23 -95 15z"/>
<path d="M745 1641 c-3 -6 -11 -9 -16 -5 -13 8 -39 -15 -39 -35 0 -12 5 -10
20 9 21 27 27 21 10 -11 -18 -32 4 -21 23 12 16 29 18 55 2 30z"/>
<path d="M1355 1642 c-14 -10 -16 -44 -2 -39 12 4 30 47 19 47 -4 0 -11 -4
-17 -8z"/>
<path d="M1800 1641 c0 -10 30 -24 37 -17 3 2 -5 9 -16 16 -12 6 -21 7 -21 1z"/>
<path d="M370 1630 c0 -5 5 -10 11 -10 5 0 7 5 4 10 -3 6 -8 10 -11 10 -2 0
-4 -4 -4 -10z"/>
<path d="M1032 1610 c0 -14 2 -19 5 -12 2 6 2 18 0 25 -3 6 -5 1 -5 -13z"/>
<path d="M1070 1610 c0 -19 3 -21 12 -12 9 9 9 15 0 24 -9 9 -12 7 -12 -12z"/>
<path d="M792 1595 c-7 -14 -12 -33 -12 -41 0 -26 17 -6 24 28 7 31 8 32 21
14 9 -12 11 -22 6 -26 -15 -8 -32 -60 -21 -60 5 0 12 11 16 25 3 14 10 25 15
25 14 0 10 27 -7 44 -21 22 -29 20 -42 -9z"/>
<path d="M1684 1608 c-5 -7 -2 -9 9 -5 9 3 18 0 21 -9 3 -9 1 -12 -4 -9 -6 3
-10 2 -10 -3 0 -6 10 -9 23 -9 12 1 32 -2 45 -7 14 -4 22 -3 22 3 0 6 -6 11
-13 11 -8 0 -22 9 -32 20 -20 22 -50 26 -61 8z"/>
<path d="M891 1598 c1 -23 15 -52 21 -42 3 5 2 19 -3 32 -9 24 -19 30 -18 10z"/>
<path d="M748 1583 c0 -10 -2 -23 -2 -30 -1 -6 -5 -15 -10 -20 -5 -4 -6 -3 -2
5 4 6 2 12 -3 12 -6 0 -11 -9 -11 -20 0 -21 8 -25 25 -12 11 7 21 82 11 82 -3
0 -7 -8 -8 -17z"/>
<path d="M1246 1584 c-22 -21 -20 -27 4 -14 11 6 20 15 20 20 0 14 -6 12 -24
-6z"/>
<path d="M1287 1578 c-15 -11 -40 -21 -55 -22 -15 -1 -36 -7 -47 -14 -17 -10
-14 -11 25 -8 42 3 119 41 120 59 0 12 -14 7 -43 -15z"/>
<path d="M129 1568 c-6 -12 -6 -18 1 -18 5 0 10 5 10 10 0 6 4 10 10 10 5 0
-5 -21 -24 -47 -18 -27 -36 -66 -40 -88 -5 -33 -4 -37 5 -20 22 38 52 65 73
65 15 0 17 3 9 11 -9 9 -18 8 -38 -5 -26 -17 -26 -17 -16 3 7 11 20 25 31 31
11 6 20 18 20 27 0 9 8 22 18 29 15 11 13 13 -16 12 -21 -1 -36 -8 -43 -20z"/>
<path d="M256 1571 c-33 -9 -61 -21 -63 -27 -2 -7 20 -3 54 9 32 10 77 19 100
18 23 0 45 3 47 8 9 14 -76 9 -138 -8z"/>
<path d="M1325 1564 c-16 -15 -23 -24 -14 -21 29 9 42 -9 14 -21 -15 -7 -25
-8 -25 -2 0 14 -47 12 -56 -1 -5 -8 1 -10 20 -7 29 6 37 -8 9 -15 -17 -4 -17
-5 0 -6 10 0 32 6 50 14 29 14 30 14 13 0 -11 -8 -24 -15 -30 -15 -5 0 -6 -3
-3 -7 4 -3 -1 -12 -11 -19 -14 -11 -14 -13 -2 -13 16 0 71 28 56 29 -6 0 -1 9
11 19 11 11 19 29 17 42 -1 13 -3 30 -3 37 -1 18 -12 14 -46 -14z"/>
<path d="M1125 1554 c-9 -14 -14 -29 -10 -32 4 -4 11 1 16 10 5 9 16 24 25 33
13 13 13 15 1 15 -8 0 -22 -12 -32 -26z"/>
<path d="M1090 1555 c-7 -9 -11 -18 -8 -20 3 -3 11 1 18 10 7 9 11 18 8 20 -3
3 -11 -1 -18 -10z"/>
<path d="M1700 1551 c0 -5 7 -15 17 -22 15 -13 15 -12 4 9 -12 23 -21 28 -21
13z"/>
<path d="M1733 1548 c2 -7 10 -12 17 -10 7 2 17 -3 22 -10 7 -9 8 -7 6 7 -2
12 -12 21 -27 23 -16 3 -22 0 -18 -10z"/>
<path d="M1794 1549 c-3 -6 0 -15 7 -20 21 -13 25 -11 25 11 0 21 -20 27 -32
9z"/>
<path d="M370 1540 c-12 -8 -11 -10 7 -10 12 0 25 5 28 10 8 13 -15 13 -35 0z"/>
<path d="M630 1509 c-14 -22 -33 -45 -42 -50 -10 -5 -18 -14 -18 -20 0 -19 53
25 66 56 9 20 13 24 14 12 0 -31 -31 -86 -61 -108 -16 -11 -29 -17 -29 -12 -1
4 -7 -8 -16 -27 -8 -19 -27 -45 -42 -57 -15 -13 -22 -23 -16 -23 18 0 64 40
64 56 0 8 5 12 10 9 6 -3 14 5 19 18 5 13 21 31 35 40 27 18 36 11 14 -11 -7
-7 -9 -13 -5 -13 4 -1 12 -3 17 -4 6 -1 14 -3 18 -4 5 0 14 -11 20 -23 11 -23
11 -23 11 3 1 15 -6 44 -15 64 -11 27 -14 52 -9 86 4 27 3 49 -2 49 -4 0 -19
-18 -33 -41z"/>
<path d="M685 1517 c-17 -41 -19 -57 -7 -57 9 0 33 82 26 89 -2 2 -11 -12 -19
-32z"/>
<path d="M864 1510 c-1 -22 3 -40 7 -40 5 0 8 -19 8 -42 l-2 -43 -6 35 c-4 22
-9 30 -14 23 -4 -7 -6 -22 -4 -35 2 -13 2 -17 0 -10 -5 14 -23 17 -23 3 0 -4
11 -20 25 -35 18 -20 25 -23 25 -11 0 9 4 14 8 11 4 -2 8 20 8 50 -1 30 -4 54
-8 54 -5 0 -8 18 -8 40 0 52 -15 52 -16 0z"/>
<path d="M1016 1534 c-10 -26 -7 -32 14 -27 11 3 25 14 31 24 13 25 -6 26 -21
2 -11 -17 -11 -17 -6 0 7 21 -10 23 -18 1z"/>
<path d="M1533 1532 c-3 -12 -9 -19 -14 -16 -5 3 -9 -9 -9 -26 0 -18 -4 -29
-10 -25 -26 16 -52 12 -77 -11 -14 -13 -32 -24 -39 -24 -8 0 -14 -4 -14 -10 0
-14 11 -12 45 8 35 21 73 37 62 25 -13 -12 -107 -69 -163 -98 -59 -31 -141
-101 -131 -112 4 -4 24 10 43 30 20 20 60 48 90 63 30 14 54 30 54 35 0 5 5 9
11 9 7 0 34 13 60 30 27 16 49 28 49 25 0 -3 -18 -21 -40 -41 -22 -20 -38 -39
-36 -42 3 -3 12 1 21 8 25 21 17 -5 -10 -30 -27 -25 -35 -51 -10 -30 8 7 15 8
15 2 0 -5 -7 -15 -15 -22 -8 -7 -15 -17 -15 -23 0 -5 10 -2 22 9 19 16 18 11
-9 -36 -33 -61 -46 -100 -32 -100 5 0 11 11 15 25 3 14 10 23 14 20 4 -2 13
16 20 40 13 46 36 76 25 33 -15 -59 -12 -95 6 -67 6 9 9 1 9 -23 0 -21 3 -38
8 -38 4 0 5 23 3 51 -2 37 -6 48 -13 38 -7 -10 -8 -5 -3 16 8 38 14 43 25 25
8 -12 10 -9 10 10 0 14 5 32 10 40 7 12 10 8 10 -14 0 -35 7 -31 14 7 4 25 2
28 -17 25 -14 -2 -23 -11 -25 -25 -4 -24 -10 -27 -36 -17 -23 9 -20 21 11 36
14 7 29 20 31 28 4 11 -1 10 -17 -4 -21 -19 -21 -19 -21 4 0 13 3 20 7 17 13
-14 43 25 37 48 -4 16 1 29 16 43 14 13 18 22 11 27 -8 4 -6 16 5 36 8 17 13
34 9 37 -3 3 -8 -4 -12 -16z m-49 -153 c-3 -5 -10 -7 -15 -3 -5 3 -7 10 -3 15
3 5 10 7 15 3 5 -3 7 -10 3 -15z"/>
<path d="M1843 1530 c-1 -11 2 -18 8 -15 11 7 12 35 1 35 -4 0 -8 -9 -9 -20z"/>
<path d="M1680 1526 c0 -9 -4 -14 -10 -11 -5 3 -10 2 -10 -3 0 -18 13 -21 28
-6 11 11 12 18 3 27 -8 8 -11 7 -11 -7z"/>
<path d="M1873 1526 c0 -8 8 -11 20 -8 14 4 16 7 5 13 -19 12 -25 11 -25 -5z"/>
<path d="M315 1520 c-3 -5 1 -10 10 -10 9 0 13 5 10 10 -3 6 -8 10 -10 10 -2
0 -7 -4 -10 -10z"/>
<path d="M989 1523 c-6 -34 -5 -53 2 -53 5 0 9 14 9 30 0 27 -8 42 -11 23z"/>
<path d="M1970 1516 c0 -9 5 -16 10 -16 6 0 10 4 10 9 0 6 -4 13 -10 16 -5 3
-10 -1 -10 -9z"/>
<path d="M240 1508 c-45 -12 -67 -32 -25 -22 40 9 94 32 75 32 -8 0 -31 -4
-50 -10z"/>
<path d="M350 1511 c0 -6 10 -8 21 -6 33 6 36 15 6 15 -15 0 -27 -4 -27 -9z"/>
<path d="M774 1495 c-6 -23 -15 -30 -36 -26 -16 2 -7 -31 19 -72 15 -23 28
-46 29 -52 0 -5 2 -18 2 -27 1 -10 9 -18 18 -18 14 0 14 3 4 15 -7 9 -10 18
-6 22 8 8 35 -27 36 -45 0 -7 7 -20 15 -28 8 -9 15 -25 16 -37 1 -33 9 -70 16
-76 3 -3 3 21 0 54 -4 54 -4 57 7 28 15 -43 29 -55 20 -18 -10 42 -23 67 -33
60 -12 -7 -22 21 -15 40 3 8 -6 25 -20 40 -17 17 -27 41 -32 75 -4 28 -11 50
-17 50 -5 0 -7 -15 -4 -35 3 -21 2 -35 -4 -35 -6 0 -1 -13 11 -30 12 -16 19
-30 16 -30 -9 0 -66 82 -66 94 1 6 7 0 15 -14 l14 -25 -1 25 c-1 14 2 40 6 58
9 37 -1 44 -10 7z m77 -167 c11 -21 11 -22 -4 -9 -10 7 -17 17 -17 22 0 15 9
10 21 -13z"/>
<path d="M827 1503 c-4 -3 -7 -22 -7 -41 0 -44 12 -35 16 13 2 37 2 39 -9 28z"/>
<path d="M918 1460 c2 -25 5 -51 5 -57 0 -7 4 -13 9 -13 4 0 8 16 8 35 0 19
-4 35 -9 35 -5 0 -12 10 -14 23 -2 12 -2 2 1 -23z"/>
<path d="M1055 1473 c-3 -21 -8 -46 -10 -55 -4 -24 3 -23 26 5 23 28 24 38 2
30 -12 -5 -15 -2 -10 10 4 9 10 24 13 32 3 8 1 15 -4 15 -6 0 -14 -17 -17 -37z"/>
<path d="M1560 1499 c0 -5 5 -7 10 -4 6 3 10 8 10 11 0 2 -4 4 -10 4 -5 0 -10
-5 -10 -11z"/>
<path d="M1128 1488 c-41 -14 -34 -28 7 -15 19 6 35 14 35 19 0 10 -7 9 -42
-4z"/>
<path d="M1725 1490 c-3 -5 -1 -10 4 -10 6 0 11 5 11 10 0 6 -2 10 -4 10 -3 0
-8 -4 -11 -10z"/>
<path d="M553 1478 c-31 -15 -29 -30 2 -16 14 6 25 15 25 20 0 9 1 10 -27 -4z"/>
<path d="M1195 1470 c-23 -25 -14 -25 27 0 27 16 29 20 12 20 -11 0 -29 -9
-39 -20z"/>
<path d="M300 1473 c-64 -23 -181 -88 -194 -108 -26 -39 -19 -38 37 4 51 39
150 91 174 91 6 0 15 5 18 10 7 11 -10 12 -35 3z"/>
<path d="M1026 1469 c-10 -30 -13 -69 -6 -69 4 0 10 17 12 38 5 38 2 55 -6 31z"/>
<path d="M1846 1471 c-4 -7 -5 -15 -2 -18 9 -9 19 4 14 18 -4 11 -6 11 -12 0z"/>
<path d="M1582 1450 c0 -14 2 -19 5 -12 2 6 2 18 0 25 -3 6 -5 1 -5 -13z"/>
<path d="M125 1420 c-21 -22 -35 -40 -30 -40 10 1 85 67 85 75 0 14 -20 1 -55
-35z"/>
<path d="M707 1453 c-6 -9 1 -74 8 -81 3 -3 5 16 5 41 0 45 -4 56 -13 40z"/>
<path d="M1119 1441 c-13 -11 -22 -22 -19 -24 3 -3 16 3 29 14 13 11 22 22 19
25 -3 2 -16 -4 -29 -15z"/>
<path d="M1555 1451 c-3 -5 -1 -12 5 -16 5 -3 10 1 10 9 0 18 -6 21 -15 7z"/>
<path d="M1896 1444 c-9 -23 -2 -28 13 -10 7 8 8 17 3 20 -6 3 -13 -1 -16 -10z"/>
<path d="M268 1433 c-21 -8 -38 -19 -38 -24 0 -9 50 9 87 30 29 17 -6 13 -49
-6z"/>
<path d="M1175 1425 c-39 -31 -21 -31 30 0 29 18 35 25 20 25 -11 0 -33 -11
-50 -25z"/>
<path d="M1926 1434 c-9 -24 -7 -28 9 -14 17 14 20 30 6 30 -5 0 -12 -7 -15
-16z"/>
<path d="M950 1429 c0 -25 24 -89 33 -89 5 0 6 8 2 18 -4 9 -11 32 -17 50 -9
32 -18 42 -18 21z"/>
<path d="M984 1420 c3 -14 6 -28 6 -32 0 -5 5 -8 11 -8 12 0 2 39 -13 55 -7 7
-9 2 -4 -15z"/>
<path d="M1229 1420 c-13 -10 -19 -19 -13 -20 7 0 22 9 35 20 13 10 19 19 13
20 -7 0 -22 -9 -35 -20z"/>
<path d="M1518 1405 c-6 -47 -3 -54 11 -27 7 13 8 29 2 44 -7 20 -9 19 -13
-17z"/>
<path d="M364 1415 c-18 -15 -18 -15 9 -9 18 4 27 2 27 -6 0 -10 3 -10 15 0 8
7 15 17 15 22 0 6 -7 5 -15 -2 -10 -9 -15 -9 -15 -1 0 15 -13 14 -36 -4z"/>
<path d="M1700 1423 c0 -5 9 -18 20 -28 11 -10 20 -14 20 -8 0 5 -9 18 -20 28
-11 10 -20 14 -20 8z"/>
<path d="M1571 1404 c0 -11 3 -14 6 -6 3 7 2 16 -1 19 -3 4 -6 -2 -5 -13z"/>
<path d="M1986 1403 c-9 -23 -7 -28 6 -15 8 8 17 8 31 1 14 -8 22 -7 31 2 8 9
7 10 -8 5 -15 -5 -17 -4 -7 7 9 11 5 14 -18 15 -18 0 -32 -5 -35 -15z"/>
<path d="M280 1375 c-18 -19 -31 -38 -27 -42 4 -3 8 -4 10 -2 1 2 18 21 36 42
44 47 27 49 -19 2z"/>
<path d="M512 1385 c-6 -14 -7 -25 -2 -25 9 0 25 39 18 46 -3 2 -10 -7 -16
-21z"/>
<path d="M1099 1379 c-18 -26 -20 -31 -6 -26 10 4 17 2 17 -5 0 -6 9 -3 20 7
11 10 20 23 20 28 0 6 -9 2 -20 -8 -21 -19 -28 -7 -8 13 6 6 9 14 6 17 -3 4
-16 -8 -29 -26z"/>
<path d="M1288 1398 c-16 -5 -28 -14 -28 -18 0 -5 18 -3 40 5 23 8 38 10 35 5
-3 -6 -13 -10 -21 -10 -8 0 -14 -4 -14 -10 0 -6 9 -6 23 -1 25 9 30 35 7 38
-8 1 -27 -3 -42 -9z"/>
<path d="M1610 1390 c0 -11 4 -20 9 -20 5 0 7 9 4 20 -3 11 -7 20 -9 20 -2 0
-4 -9 -4 -20z"/>
<path d="M163 1355 c-20 -20 -33 -38 -29 -42 3 -3 15 6 27 21 23 29 37 29 21
-1 -7 -12 -6 -22 3 -30 10 -9 15 -6 24 13 7 16 7 24 0 24 -6 0 -6 6 1 19 23
44 -1 42 -47 -4z"/>
<path d="M1052 1368 c-8 -18 -11 -19 -11 -5 -1 9 -5 17 -9 17 -5 0 -7 -13 -4
-30 3 -18 0 -30 -7 -30 -7 0 -5 -10 5 -26 12 -17 14 -28 7 -35 -12 -12 5 -69
20 -69 5 0 7 6 4 13 -15 42 -17 57 -7 57 6 0 8 4 5 10 -3 5 1 34 9 65 14 56 8
74 -12 33z m-2 -54 c0 -8 -5 -12 -10 -9 -6 4 -8 11 -5 16 9 14 15 11 15 -7z"/>
<path d="M1890 1380 c0 -13 33 -21 42 -12 6 6 -1 11 -16 14 -14 3 -26 2 -26
-2z"/>
<path d="M315 1349 c-45 -40 -46 -60 -1 -22 31 25 52 53 41 53 -2 0 -20 -14
-40 -31z"/>
<path d="M1147 1342 c-44 -45 -50 -68 -7 -27 31 30 54 28 28 -2 -8 -10 -16
-25 -16 -33 0 -8 -3 -31 -7 -50 l-6 -35 19 40 c10 22 15 41 11 43 -5 2 6 21
23 43 27 33 30 42 18 49 -22 14 -22 14 -63 -28z"/>
<path d="M1535 1371 c-5 -10 -4 -16 3 -19 7 -2 12 -13 12 -25 0 -18 2 -19 10
-7 8 13 10 13 10 -1 0 -9 6 -21 13 -27 11 -9 11 -3 3 34 -6 25 -12 40 -14 34
-6 -16 -20 -12 -24 8 -3 14 -5 15 -13 3z"/>
<path d="M385 1338 c-6 -19 -24 -42 -45 -56 -19 -13 -35 -29 -35 -35 -1 -7 -7
-32 -15 -55 -11 -34 -11 -48 -2 -63 7 -10 12 -33 12 -51 0 -52 13 -22 16 37 2
32 -1 53 -7 50 -5 -4 -9 -13 -9 -22 0 -9 -3 -14 -6 -10 -13 13 29 113 57 135
35 28 60 74 50 90 -4 7 -11 -1 -16 -20z"/>
<path d="M589 1353 c-1 -10 -1 -29 0 -43 0 -14 -3 -37 -9 -52 -5 -17 -5 -28 0
-28 5 0 12 10 14 23 9 41 11 117 4 117 -5 0 -9 -8 -9 -17z"/>
<path d="M924 1346 c8 -32 34 -76 46 -76 7 0 -34 88 -46 99 -4 3 -4 -7 0 -23z"/>
<path d="M2045 1360 c-3 -5 -1 -10 4 -10 6 0 11 5 11 10 0 6 -2 10 -4 10 -3 0
-8 -4 -11 -10z"/>
<path d="M745 1330 l6 -35 -17 29 c-18 32 -28 26 -42 -24 -8 -26 -10 -29 -11
-12 -1 13 -5 21 -11 17 -5 -3 -7 -12 -3 -20 3 -8 0 -15 -6 -15 -6 0 -11 9 -11
20 0 11 -6 20 -13 20 -9 0 -18 -22 -24 -57 -12 -66 -8 -82 8 -35 13 37 24 41
32 11 3 -12 10 -18 17 -14 8 5 9 -4 5 -32 -4 -27 -3 -33 4 -23 15 25 18 75 4
73 -7 -2 -13 6 -13 17 0 13 5 17 14 14 8 -3 16 2 19 13 4 14 5 15 6 2 0 -9 13
-25 27 -34 l27 -17 -6 29 c-3 17 -2 34 3 39 5 5 2 22 -6 39 l-14 30 5 -35z"/>
<path d="M1935 1334 c-16 -13 -25 -24 -19 -24 15 0 61 37 54 43 -3 3 -18 -6
-35 -19z"/>
<path d="M620 1339 c0 -5 5 -7 10 -4 6 3 10 8 10 11 0 2 -4 4 -10 4 -5 0 -10
-5 -10 -11z"/>
<path d="M1297 1313 c-39 -30 -60 -62 -29 -43 32 18 76 59 71 65 -3 3 -22 -7
-42 -22z"/>
<path d="M222 1318 c-6 -7 -13 -27 -17 -43 -6 -28 -5 -28 15 8 21 39 23 59 2
35z"/>
<path d="M1738 1323 c7 -3 16 -2 19 1 4 3 -2 6 -13 5 -11 0 -14 -3 -6 -6z"/>
<path d="M971 1315 c0 -14 38 -59 45 -53 3 3 -6 19 -20 34 -14 16 -25 25 -25
19z"/>
<path d="M1075 1280 c0 -22 3 -40 6 -40 10 0 18 38 12 60 -9 33 -18 23 -18
-20z"/>
<path d="M105 1300 c-3 -5 -1 -10 4 -10 6 0 11 5 11 10 0 6 -2 10 -4 10 -3 0
-8 -4 -11 -10z"/>
<path d="M540 1285 c-6 -15 -20 -41 -32 -58 -14 -19 -16 -28 -7 -25 16 5 65
96 56 105 -4 3 -11 -7 -17 -22z"/>
<path d="M901 1305 c3 -5 12 -26 21 -45 9 -19 19 -44 23 -54 3 -10 8 -16 11
-13 10 10 -16 84 -37 103 -12 10 -20 15 -18 9z"/>
<path d="M1859 1284 c-13 -15 -18 -25 -10 -22 13 4 49 48 39 48 -2 0 -15 -12
-29 -26z"/>
<path d="M57 1293 c-4 -3 -7 -16 -6 -27 0 -19 1 -19 10 3 10 24 8 36 -4 24z"/>
<path d="M129 1268 c-17 -24 -24 -47 -24 -80 0 -48 14 -68 17 -25 0 12 2 33 3
48 1 14 10 37 20 52 26 40 11 44 -16 5z"/>
<path d="M1326 1264 c-20 -20 -36 -43 -35 -52 0 -13 4 -11 17 8 9 14 30 37 47
53 16 15 24 27 18 27 -6 0 -27 -16 -47 -36z"/>
<path d="M1905 1286 c-18 -13 -17 -13 7 -13 18 0 25 4 21 13 -3 8 -6 14 -7 14
-1 0 -11 -6 -21 -14z"/>
<path d="M221 1258 c-15 -42 -6 -48 13 -9 18 35 19 41 7 41 -5 0 -14 -14 -20
-32z"/>
<path d="M156 1254 c-9 -23 -7 -36 3 -30 12 8 21 46 11 46 -4 0 -11 -7 -14
-16z"/>
<path d="M256 1236 c-17 -35 -22 -111 -8 -102 5 3 8 15 7 28 -1 13 4 40 13 61
19 48 10 59 -12 13z"/>
<path d="M781 1245 c0 -16 1 -39 0 -50 -1 -17 -3 -17 -11 -5 -15 24 -28 1 -31
-55 -3 -41 0 -50 14 -53 9 -2 17 2 17 8 0 6 10 15 23 20 15 6 17 9 6 9 -25 1
-29 35 -8 62 18 24 18 24 12 2 -4 -17 -1 -23 12 -23 13 0 16 -7 13 -30 -4 -24
-2 -27 9 -19 10 9 13 6 13 -15 0 -16 4 -25 10 -21 6 4 10 -7 10 -26 0 -18 3
-29 7 -26 21 22 -13 140 -56 191 -7 8 -10 19 -8 24 3 4 2 14 -4 22 -7 13 -9
13 -9 0 0 -13 -1 -13 -11 0 -8 12 -10 8 -8 -15z m-24 -147 c-3 -7 -5 -2 -5 12
0 14 2 19 5 13 2 -7 2 -19 0 -25z"/>
<path d="M477 1242 c-19 -21 -22 -32 -8 -32 5 0 16 11 25 25 19 29 7 34 -17 7z"/>
<path d="M980 1253 c0 -7 5 -15 10 -18 6 -3 10 -15 10 -26 0 -10 5 -19 11 -19
6 0 8 9 4 23 -8 26 -35 57 -35 40z"/>
<path d="M1117 1253 c-4 -3 -7 -22 -7 -41 0 -44 8 -38 15 11 6 37 4 43 -8 30z"/>
<path d="M1347 1233 c-24 -45 -21 -65 4 -24 11 18 18 38 16 45 -2 6 -11 -3
-20 -21z"/>
<path d="M532 1217 c-12 -21 -17 -37 -12 -37 14 0 43 47 38 61 -2 7 -14 -4
-26 -24z"/>
<path d="M1245 1220 c-16 -17 -24 -30 -19 -30 13 0 59 48 52 55 -2 3 -17 -9
-33 -25z"/>
<path d="M1510 1224 c0 -14 4 -23 10 -19 6 3 10 15 10 26 0 10 -4 19 -10 19
-5 0 -10 -12 -10 -26z"/>
<path d="M1590 1236 c0 -8 5 -18 10 -21 6 -3 10 1 10 9 0 8 -4 18 -10 21 -5 3
-10 -1 -10 -9z"/>
<path d="M1620 1242 c0 -5 7 -13 16 -16 10 -4 14 -1 12 6 -5 15 -28 23 -28 10z"/>
<path d="M412 1228 c-14 -18 -43 -90 -38 -96 3 -2 17 19 31 48 25 50 29 74 7
48z"/>
<path d="M1560 1228 c0 -9 5 -20 10 -23 13 -8 13 5 0 25 -8 13 -10 13 -10 -2z"/>
<path d="M1730 1231 c0 -5 5 -13 10 -16 6 -3 10 -2 10 4 0 5 -4 13 -10 16 -5
3 -10 2 -10 -4z"/>
<path d="M175 1210 c-10 -30 -13 -170 -4 -170 10 0 17 84 7 90 -4 3 -3 23 3
44 12 42 6 74 -6 36z"/>
<path d="M974 1201 c3 -18 6 -42 6 -53 0 -10 4 -17 9 -14 11 7 3 78 -11 91 -7
7 -9 -1 -4 -24z"/>
<path d="M1075 1174 c5 -74 15 -82 15 -11 0 31 -4 58 -9 61 -6 4 -8 -17 -6
-50z"/>
<path d="M1192 1205 c-14 -30 -16 -54 -4 -39 15 17 32 64 23 64 -4 0 -13 -11
-19 -25z"/>
<path d="M1880 1215 c-7 -9 -11 -18 -8 -20 3 -3 11 1 18 10 7 9 11 18 8 20 -3
3 -11 -1 -18 -10z"/>
<path d="M1351 1180 c-12 -22 -18 -40 -12 -40 6 0 20 18 31 40 11 22 17 40 12
40 -5 0 -18 -18 -31 -40z"/>
<path d="M1684 1206 c-10 -8 -16 -17 -13 -20 3 -3 14 1 25 8 10 8 16 17 13 20
-3 3 -14 -1 -25 -8z"/>
<path d="M1765 1200 c3 -5 12 -7 20 -3 21 7 19 13 -6 13 -11 0 -18 -4 -14 -10z"/>
<path d="M581 1175 c-1 -16 -4 -41 -8 -55 -8 -34 6 -20 16 16 4 16 5 38 0 49
-6 17 -8 15 -8 -10z"/>
<path d="M697 1180 c-3 -13 1 -24 14 -30 15 -8 19 -7 19 5 0 8 -5 15 -11 15
-6 0 -9 7 -5 15 3 8 2 15 -3 15 -5 0 -11 -9 -14 -20z"/>
<path d="M1490 1168 c1 -35 28 -95 31 -68 6 55 3 80 -9 75 -7 -2 -10 -1 -7 4
3 5 1 12 -5 16 -6 4 -10 -7 -10 -27z"/>
<path d="M1231 1166 c-14 -14 -23 -28 -20 -30 7 -8 51 33 47 44 -2 6 -14 0
-27 -14z"/>
<path d="M1540 1187 c0 -13 24 -57 31 -57 11 0 -1 38 -17 51 -8 6 -14 9 -14 6z"/>
<path d="M1602 1170 c14 -22 24 -19 15 5 -4 8 -11 15 -17 15 -6 0 -6 -7 2 -20z"/>
<path d="M208 1154 c-1 -16 -2 -40 -3 -54 -1 -14 3 -31 9 -39 6 -8 11 -26 12
-40 1 -42 14 -98 29 -127 7 -14 12 -39 10 -55 -2 -16 0 -29 5 -29 6 0 10 23
10 51 0 27 -4 48 -9 45 -12 -8 -31 72 -31 131 0 36 -3 44 -10 33 -8 -11 -10 1
-9 42 3 58 -9 96 -13 42z"/>
<path d="M416 1152 c-22 -42 -36 -143 -26 -186 8 -38 8 -54 -5 -116 -10 -46
-1 -36 20 20 21 60 29 104 17 96 -6 -3 -15 8 -21 24 -5 17 -6 30 -2 30 4 0 8
15 9 33 1 18 8 52 17 76 18 52 13 65 -9 23z"/>
<path d="M1019 1178 c-1 -2 -3 -16 -5 -33 -3 -16 -7 -49 -10 -72 -4 -24 -2
-43 3 -43 5 0 10 6 10 13 0 6 3 40 8 75 4 34 4 62 1 62 -3 0 -7 -1 -7 -2z"/>
<path d="M1040 1163 c0 -13 5 -23 10 -23 13 0 13 11 0 30 -8 12 -10 11 -10 -7z"/>
<path d="M466 1119 c-28 -61 -45 -136 -29 -126 6 4 13 23 16 43 3 19 16 56 28
80 12 25 19 48 15 51 -3 3 -17 -18 -30 -48z"/>
<path d="M900 1142 c0 -18 5 -32 10 -32 6 0 9 11 7 25 -5 37 -17 42 -17 7z"/>
<path d="M934 1148 c3 -13 6 -26 6 -30 0 -5 4 -8 8 -8 5 0 7 14 4 30 -2 17 -9
30 -14 30 -6 0 -8 -10 -4 -22z"/>
<path d="M1641 1151 c-11 -20 -5 -72 10 -81 5 -4 2 -15 -7 -26 -13 -16 -15
-16 -10 -1 3 9 1 17 -4 17 -6 0 -10 -7 -10 -16 0 -8 -17 -31 -37 -49 -21 -19
-33 -35 -28 -35 6 0 24 13 41 30 18 16 34 27 37 24 2 -3 14 7 26 22 18 23 19
28 6 38 -17 12 -22 51 -10 79 10 23 -2 22 -14 -2z"/>
<path d="M130 1124 c0 -21 3 -34 7 -31 10 11 12 56 2 62 -5 4 -9 -11 -9 -31z"/>
<path d="M442 1135 c-19 -42 -14 -53 8 -17 22 36 24 42 12 42 -5 0 -14 -11
-20 -25z"/>
<path d="M1117 1112 c-29 -53 -33 -67 -17 -57 15 9 52 85 48 97 -2 5 -16 -12
-31 -40z"/>
<path d="M1240 1130 c-19 -16 -29 -30 -23 -30 7 0 27 13 45 30 43 38 24 38
-22 0z"/>
<path d="M1900 1150 c-12 -8 -9 -10 12 -10 15 0 30 5 33 10 8 13 -25 13 -45 0z"/>
<path d="M640 1130 c0 -11 5 -20 10 -20 6 0 10 9 10 20 0 11 -4 20 -10 20 -5
0 -10 -9 -10 -20z"/>
<path d="M1440 1139 c0 -6 -6 -9 -14 -6 -9 4 -16 -4 -20 -23 -3 -16 -17 -48
-31 -70 -14 -22 -23 -40 -19 -40 17 0 63 43 62 58 -2 33 2 52 13 52 5 0 8 -4
4 -9 -3 -5 -1 -12 5 -16 6 -4 10 8 10 29 0 20 -2 36 -5 36 -3 0 -5 -5 -5 -11z"/>
<path d="M515 1121 c-3 -12 -8 -33 -11 -48 -2 -16 -6 -38 -9 -50 -3 -13 -1
-23 3 -23 5 0 14 30 20 67 11 67 10 93 -3 54z"/>
<path d="M336 1099 c-10 -52 -7 -107 7 -121 14 -14 31 -68 22 -68 -3 0 -9 10
-14 23 -6 15 -8 1 -7 -45 1 -73 10 -87 21 -35 9 45 12 237 3 237 -9 0 -12 -28
-9 -80 1 -19 0 -32 -3 -30 -10 11 -13 70 -6 109 4 22 4 41 0 41 -4 0 -10 -14
-14 -31z"/>
<path d="M1600 1105 c0 -16 -7 -41 -15 -55 -16 -28 -18 -40 -7 -40 7 0 25 37
36 75 3 11 1 27 -4 35 -7 12 -10 8 -10 -15z"/>
<path d="M255 1080 c2 -57 15 -63 15 -7 0 26 -4 47 -8 47 -5 0 -8 -18 -7 -40z"/>
<path d="M681 1090 c-1 -20 -10 -53 -21 -75 -24 -47 -25 -51 -5 -35 27 23 16
-8 -12 -35 -15 -14 -22 -25 -15 -25 14 0 62 47 62 61 0 4 -4 9 -10 11 -6 2 -4
20 5 45 10 29 12 50 5 65 -8 21 -9 19 -9 -12z"/>
<path d="M977 1113 c-18 -17 13 -173 34 -173 4 0 3 14 -2 30 -5 17 -13 42 -18
58 -4 15 -7 42 -5 60 4 33 2 37 -9 25z"/>
<path d="M1136 1070 c-20 -27 -36 -53 -36 -57 0 -12 40 30 61 64 34 54 15 49
-25 -7z"/>
<path d="M545 1083 c-4 -16 -22 -59 -41 -98 -31 -64 -39 -103 -35 -174 2 -46
13 -13 15 46 1 44 9 74 35 123 18 36 36 80 38 98 6 39 -4 43 -12 5z"/>
<path d="M710 1084 c0 -17 -3 -47 -6 -65 -4 -28 -3 -31 6 -16 15 23 20 81 9
98 -6 10 -9 4 -9 -17z"/>
<path d="M1037 1096 c-4 -10 -7 -32 -6 -49 1 -31 1 -31 10 7 10 43 7 72 -4 42z"/>
<path d="M1324 1086 c-9 -15 -14 -29 -11 -32 3 -3 13 6 23 20 9 15 14 29 11
32 -3 3 -13 -6 -23 -20z"/>
<path d="M1476 1078 c-10 -21 -22 -38 -26 -38 -5 0 -19 -14 -31 -32 -17 -23
-19 -30 -7 -26 8 4 20 2 25 -3 5 -5 26 7 52 31 48 45 51 46 51 25 0 -8 -16
-22 -35 -31 -37 -17 -54 -34 -35 -34 6 0 9 -4 5 -9 -3 -6 -13 -9 -23 -9 -9 0
-25 -3 -34 -7 -12 -5 -18 -3 -18 6 0 7 -13 0 -30 -16 -16 -16 -30 -36 -30 -44
0 -14 -1 -14 -10 -1 -14 22 -13 26 21 65 35 39 29 47 -10 13 -14 -13 -20 -16
-13 -8 17 20 15 35 -3 20 -12 -10 -15 -9 -15 5 0 15 -3 13 -18 -6 -23 -31 -44
-79 -34 -79 5 0 16 17 26 37 15 32 19 35 27 20 6 -11 6 -24 0 -36 -8 -14 -7
-21 2 -24 7 -3 5 -6 -5 -6 -10 -1 -18 -8 -18 -17 0 -8 5 -12 10 -9 6 3 10 -3
10 -13 0 -15 -5 -19 -19 -15 -12 3 -17 11 -14 19 3 8 0 14 -6 14 -15 0 -14
-49 2 -55 6 -3 13 -20 14 -38 1 -30 1 -30 -9 -9 -11 21 -28 30 -28 15 0 -12
39 -73 46 -73 3 0 4 7 0 15 -3 8 -1 15 3 15 5 0 7 19 5 43 -3 31 -2 37 5 22 8
-17 10 -15 11 15 2 19 2 39 1 43 -1 5 3 6 8 2 6 -3 17 7 25 23 15 30 46 61 46
46 0 -5 -7 -18 -15 -28 -31 -41 -13 -37 26 5 25 28 34 34 23 17 -21 -37 -7
-35 30 2 16 17 35 30 43 30 7 0 13 5 13 11 0 6 -7 8 -16 5 -14 -5 -15 -4 -4 9
7 8 16 12 21 10 4 -3 16 7 26 21 13 20 14 29 5 32 -7 2 -10 13 -6 27 3 12 1
26 -5 29 -7 5 -11 -2 -11 -18 0 -14 -5 -28 -12 -32 -7 -5 -8 -2 -3 7 4 8 -2 4
-14 -8 -30 -31 -34 -29 -16 8 9 17 14 36 12 42 -2 7 -12 -5 -21 -25z"/>
<path d="M894 1080 c3 -14 6 -42 6 -63 0 -22 4 -36 10 -32 13 8 4 96 -11 109
-9 8 -10 5 -5 -14z"/>
<path d="M1260 1065 c-19 -19 -29 -35 -24 -35 6 0 25 16 44 35 19 19 29 35 24
35 -6 0 -25 -16 -44 -35z"/>
<path d="M650 1080 c0 -5 -7 -10 -16 -10 -13 0 -14 -3 -5 -13 6 -8 10 -16 8
-18 -1 -3 6 4 16 14 19 21 22 37 7 37 -5 0 -10 -4 -10 -10z"/>
<path d="M792 1055 c-1 -20 -4 -40 -7 -45 -4 -6 -1 -10 4 -10 6 0 11 1 12 3 7
39 9 87 2 87 -6 0 -10 -16 -11 -35z"/>
<path d="M1341 1060 c-15 -21 -18 -30 -8 -30 14 0 44 46 35 55 -2 3 -14 -9
-27 -25z"/>
<path d="M1188 1049 c-13 -16 -35 -44 -50 -61 -35 -38 -55 -95 -39 -111 8 -8
11 -4 11 15 0 14 6 38 14 52 11 22 15 24 20 11 10 -28 7 -45 -9 -45 -16 0 -18
-7 -19 -122 -1 -48 3 -74 9 -70 6 3 4 -1 -3 -10 -7 -9 -11 -28 -8 -43 8 -41
16 -43 17 -4 1 21 3 26 6 14 5 -22 23 -45 23 -29 0 5 -6 32 -13 59 -15 54 -22
213 -9 181 7 -15 13 -6 28 43 11 33 17 61 12 61 -16 0 -8 20 23 55 17 19 26
35 21 35 -6 0 -21 -14 -34 -31z m-27 -86 c-12 -20 -14 -14 -5 12 4 9 9 14 11
11 3 -2 0 -13 -6 -23z"/>
<path d="M594 1058 c-4 -7 -14 -23 -22 -35 -8 -13 -10 -23 -5 -23 11 0 47 59
40 66 -3 3 -8 -1 -13 -8z"/>
<path d="M742 1030 c-5 -23 -6 -40 -1 -40 5 0 9 1 9 3 0 1 4 17 9 34 5 18 6
35 1 38 -4 2 -12 -13 -18 -35z"/>
<path d="M1056 1053 c-11 -36 -17 -87 -9 -80 11 12 31 97 22 97 -4 0 -10 -8
-13 -17z"/>
<path d="M930 1057 c0 -4 9 -29 21 -54 20 -45 27 -113 14 -152 -3 -12 -2 -21
4 -21 19 0 24 86 7 142 -13 47 -45 106 -46 85z"/>
<path d="M195 973 c3 -52 22 -109 31 -100 4 3 1 20 -5 38 -6 18 -11 47 -11 65
0 18 -4 35 -9 39 -6 3 -8 -14 -6 -42z"/>
<path d="M1226 987 c-13 -17 -30 -45 -36 -61 -9 -24 -8 -27 5 -22 12 4 15 1
11 -12 -13 -41 -16 -82 -6 -82 5 0 11 10 11 23 1 12 3 42 5 67 1 25 3 48 3 52
1 3 13 20 27 37 14 17 21 31 15 31 -5 0 -21 -15 -35 -33z"/>
<path d="M294 981 c3 -18 6 -41 6 -50 0 -13 2 -13 9 -2 5 8 5 27 0 44 -12 42
-23 48 -15 8z"/>
<path d="M451 987 c-6 -15 -12 -42 -14 -61 -2 -19 -8 -41 -14 -48 -10 -11 -16
-50 -28 -170 -1 -14 2 -32 6 -40 6 -8 9 1 10 27 0 22 2 54 4 71 9 87 25 147
25 94 0 -13 3 -20 7 -16 4 4 6 26 5 49 -2 23 2 57 8 76 12 41 5 55 -9 18z"/>
<path d="M811 987 c-17 -42 -13 -67 5 -28 8 19 13 39 10 45 -2 6 -9 -2 -15
-17z"/>
<path d="M864 945 c-1 -35 3 -62 8 -59 10 6 11 124 1 124 -5 0 -8 -29 -9 -65z"/>
<path d="M578 976 c-16 -12 -28 -28 -28 -36 0 -9 12 -2 32 17 38 38 35 51 -4
19z"/>
<path d="M261 978 c1 -23 15 -52 21 -42 3 5 2 19 -3 32 -9 24 -19 30 -18 10z"/>
<path d="M716 962 c-4 -12 -10 -20 -14 -18 -4 2 -19 -14 -34 -35 -15 -22 -24
-39 -18 -39 5 0 15 9 23 20 7 11 24 21 37 23 29 5 34 16 22 48 l-9 24 -7 -23z"/>
<path d="M1642 953 c-13 -14 -21 -28 -18 -31 7 -6 56 37 56 50 0 14 -14 7 -38
-19z"/>
<path d="M1561 946 c-12 -13 -18 -27 -13 -30 5 -3 7 -18 4 -32 -3 -19 -1 -25
7 -20 6 4 11 14 11 23 0 9 7 25 17 35 18 20 5 25 -17 6 -8 -7 -4 -1 9 15 30
33 13 36 -18 3z"/>
<path d="M837 947 c-11 -29 -9 -43 4 -30 6 6 9 19 7 29 -3 18 -4 18 -11 1z"/>
<path d="M1526 944 c-5 -13 -9 -14 -20 -4 -12 9 -17 7 -25 -9 -14 -25 -14 -64
-1 -56 6 4 8 10 5 15 -6 10 4 40 15 40 4 0 5 -24 2 -52 -2 -29 -1 -50 3 -46 5
5 9 24 11 44 1 19 10 44 19 54 9 10 12 21 7 24 -6 3 -13 -1 -16 -10z"/>
<path d="M565 915 c-17 -13 -25 -24 -20 -24 14 -1 61 37 54 43 -2 3 -18 -6
-34 -19z"/>
<path d="M761 922 c-7 -13 -11 -26 -8 -28 8 -8 29 25 25 38 -3 8 -9 4 -17 -10z"/>
<path d="M923 916 c0 -20 -37 -96 -47 -96 -2 0 -1 12 1 28 4 23 3 25 -7 9 -7
-10 -9 -25 -6 -34 3 -8 -2 -27 -12 -41 -26 -37 -33 -60 -22 -67 6 -4 10 0 10
7 0 8 20 45 45 83 50 75 63 111 48 126 -7 7 -10 2 -10 -15z"/>
<path d="M1036 918 c-9 -34 -7 -90 2 -84 9 5 16 106 8 106 -2 0 -6 -10 -10
-22z"/>
<path d="M1680 911 c-6 -12 -7 -21 -1 -21 10 0 24 30 17 37 -2 3 -9 -5 -16
-16z"/>
<path d="M1626 905 c-28 -28 -28 -52 -1 -95 15 -23 29 -39 33 -36 3 4 0 12 -6
18 -7 7 -12 21 -12 32 0 16 3 17 9 8 6 -10 10 -7 13 12 6 29 6 28 -16 20 -9
-3 -16 -13 -16 -21 0 -8 -4 -12 -10 -8 -12 7 -2 34 23 63 23 24 7 31 -17 7z"/>
<path d="M309 898 c-6 -21 -5 -39 2 -44 5 -3 9 6 9 20 0 21 -7 36 -11 24z"/>
<path d="M782 875 c-9 -19 -9 -23 2 -19 15 6 29 44 17 44 -4 0 -13 -11 -19
-25z"/>
<path d="M551 862 c-12 -17 -21 -40 -21 -53 0 -16 7 -9 25 26 28 57 27 69 -4
27z"/>
<path d="M1003 870 c1 -11 5 -20 9 -20 4 0 8 9 8 20 0 11 -4 20 -9 20 -6 0 -9
-9 -8 -20z"/>
<path d="M680 873 c-1 -5 -17 -26 -36 -48 -20 -22 -31 -30 -25 -18 15 30 14
38 -4 23 -8 -6 -14 -24 -14 -38 0 -15 -3 -51 -7 -81 -5 -40 -4 -52 5 -47 6 4
9 11 6 16 -10 16 16 95 42 125 14 17 22 23 20 15 -27 -75 -48 -152 -43 -157 9
-10 14 -1 20 38 3 19 14 55 25 79 12 27 16 47 10 51 -6 3 -4 11 6 19 8 7 15
16 15 21 0 11 -20 12 -20 2z"/>
<path d="M1437 873 c-12 -12 -7 -49 9 -69 15 -19 16 -19 8 1 -4 11 -7 32 -7
48 1 29 0 31 -10 20z"/>
<path d="M1526 872 c-3 -5 -1 -22 4 -38 8 -29 8 -29 9 9 1 36 -3 45 -13 29z"/>
<path d="M1576 864 c-9 -23 -7 -52 3 -58 5 -3 9 12 9 34 1 43 -2 49 -12 24z"/>
<path d="M717 846 c-10 -15 -12 -26 -6 -28 6 -2 4 -15 -5 -33 -9 -17 -16 -35
-16 -42 0 -6 -5 -15 -12 -19 -7 -4 -8 -3 -4 4 4 7 2 12 -3 12 -6 0 -11 -8 -12
-17 0 -10 -3 -38 -6 -62 -3 -30 -2 -41 6 -37 6 4 11 0 12 -11 0 -10 3 -27 6
-38 2 -11 7 -35 10 -52 3 -18 9 -33 13 -33 9 0 7 18 -8 95 -6 27 -9 52 -7 55
2 4 6 27 9 53 6 49 24 96 41 110 7 6 6 10 -2 14 -10 3 -10 10 -2 25 16 29 4
33 -14 4z m-40 -188 c-2 -13 -4 -5 -4 17 -1 22 1 32 4 23 2 -10 2 -28 0 -40z"/>
<path d="M1166 854 c-9 -22 -7 -122 2 -127 4 -3 7 28 8 69 0 41 -1 74 -2 74
-1 0 -5 -7 -8 -16z"/>
<path d="M1239 868 c-6 -15 -4 -60 3 -64 4 -3 8 11 8 30 0 29 -6 47 -11 34z"/>
<path d="M1400 843 c0 -39 11 -73 22 -73 6 0 7 7 2 18 -4 9 -7 32 -7 50 0 17
-4 32 -9 32 -4 0 -8 -12 -8 -27z"/>
<path d="M1374 818 c3 -18 11 -37 17 -43 7 -7 8 -1 3 20 -4 16 -7 35 -7 42 0
7 -5 13 -10 13 -5 0 -7 -14 -3 -32z"/>
<path d="M300 797 c0 -25 5 -49 10 -52 7 -4 9 10 5 41 -6 62 -15 69 -15 11z"/>
<path d="M572 804 c-17 -53 -22 -113 -11 -119 5 -4 9 11 9 33 0 21 5 53 11 70
6 17 9 37 7 43 -2 7 -9 -6 -16 -27z"/>
<path d="M1670 831 c0 -16 12 -41 20 -41 4 0 5 11 2 25 -4 23 -22 36 -22 16z"/>
<path d="M757 807 c-21 -33 -50 -114 -45 -128 2 -7 14 15 27 49 12 34 24 62
26 62 7 0 -4 -70 -14 -88 -5 -9 -12 -34 -15 -54 -5 -30 -3 -36 8 -32 8 3 12
12 9 19 -7 20 13 74 47 129 33 52 37 65 15 46 -9 -7 -15 -8 -15 -2 0 21 -29
20 -43 -1z"/>
<path d="M917 823 c-4 -3 -7 -11 -7 -17 0 -6 5 -5 12 2 6 6 9 14 7 17 -3 3 -9
2 -12 -2z"/>
<path d="M1343 775 c1 -51 7 -69 39 -119 40 -62 45 -84 28 -117 -7 -12 -7 -19
-1 -19 14 0 21 14 23 44 2 18 8 26 21 26 16 0 19 6 15 36 l-4 37 18 -23 c10
-12 18 -37 18 -56 0 -19 4 -34 9 -34 14 0 6 66 -11 92 -24 36 -79 90 -85 84
-3 -3 -1 -12 5 -19 7 -8 10 -16 7 -19 -3 -3 1 -11 10 -18 8 -7 15 -20 14 -29
0 -10 -2 -11 -6 -3 -7 19 -23 14 -17 -5 5 -15 3 -15 -10 1 -9 11 -14 28 -10
38 3 11 -5 31 -20 51 -14 18 -30 51 -35 73 -9 37 -9 37 -8 -21z m56 -100 c0
-11 -25 20 -41 50 -5 11 2 7 16 -10 14 -16 25 -34 25 -40z"/>
<path d="M1472 788 c1 -27 9 -51 21 -65 10 -12 16 -26 13 -31 -7 -12 3 -42 13
-42 12 0 3 61 -12 78 -7 9 -17 24 -21 32 -5 9 -2 8 7 -2 24 -30 28 -20 8 21
-11 21 -17 41 -14 45 4 3 1 6 -5 6 -6 0 -10 -17 -10 -42z"/>
<path d="M428 760 c-4 -81 9 -172 26 -185 7 -5 19 -30 28 -54 8 -25 20 -47 27
-49 9 -3 9 3 -2 25 -9 16 -18 45 -22 66 -4 20 -14 41 -23 46 -11 6 -13 16 -8
37 8 36 10 53 6 79 -2 11 -6 0 -11 -25 -6 -40 -7 -38 -5 21 2 36 -1 74 -5 85
-4 12 -8 -4 -11 -46z"/>
<path d="M1078 798 c-2 -13 -1 -36 2 -53 6 -25 7 -22 11 23 4 51 -5 73 -13 30z"/>
<path d="M1510 804 c0 -12 7 -27 15 -34 19 -16 19 -10 0 26 -13 25 -15 26 -15
8z"/>
<path d="M499 803 c0 -5 -2 -18 -5 -30 -2 -13 1 -23 6 -23 6 0 10 14 10 30 0
26 -9 44 -11 23z"/>
<path d="M943 773 c-8 -21 -17 -51 -20 -67 -7 -42 13 -23 22 20 3 20 13 48 22
60 10 16 11 24 4 24 -7 0 -19 -17 -28 -37z"/>
<path d="M1553 773 c4 -20 14 -44 23 -52 15 -15 16 -14 9 4 -4 11 -11 35 -17
53 -12 43 -22 41 -15 -5z"/>
<path d="M1601 800 c-1 -18 16 -46 23 -40 2 3 -2 16 -9 30 -8 15 -14 19 -14
10z"/>
<path d="M332 770 c-1 -16 2 -30 8 -30 5 0 10 14 10 30 0 17 -4 30 -8 30 -4 0
-9 -13 -10 -30z"/>
<path d="M1031 753 c1 -21 5 -49 9 -63 6 -18 8 -7 7 38 -1 34 -5 62 -9 62 -5
0 -8 -17 -7 -37z"/>
<path d="M1210 769 c0 -13 9 -35 20 -49 24 -31 25 -41 3 -33 -13 5 -10 -2 10
-26 15 -18 27 -39 27 -47 0 -8 5 -14 10 -14 6 0 4 14 -4 34 -8 19 -12 36 -10
39 2 2 -9 30 -26 62 -22 41 -30 51 -30 34z"/>
<path d="M367 760 c-3 -11 -1 -20 4 -20 5 0 9 9 9 20 0 11 -2 20 -4 20 -2 0
-6 -9 -9 -20z"/>
<path d="M530 753 c-1 -16 -7 -39 -15 -53 l-14 -25 -1 34 c0 42 -8 37 -15 -11
-5 -31 -3 -36 12 -34 31 5 73 116 43 116 -5 0 -10 -12 -10 -27z"/>
<path d="M1595 740 c9 -16 20 -30 25 -30 5 0 1 13 -8 30 -22 39 -37 39 -17 0z"/>
<path d="M860 719 c-16 -60 -18 -98 -7 -141 14 -54 26 -47 14 8 -8 33 -7 62 2
106 14 70 8 90 -9 27z"/>
<path d="M990 750 c-7 -44 19 -161 41 -184 13 -14 11 2 -5 49 -8 22 -19 65
-24 95 -5 30 -10 48 -12 40z"/>
<path d="M1430 752 c0 -5 14 -21 30 -37 36 -34 40 -22 5 18 -25 28 -35 33 -35
19z"/>
<path d="M896 722 c-4 -15 -9 -35 -12 -44 -3 -10 -1 -18 3 -18 12 0 33 79 23
85 -4 3 -11 -7 -14 -23z"/>
<path d="M1540 719 c0 -9 7 -22 15 -29 19 -16 19 0 0 26 -12 16 -14 16 -15 3z"/>
<path d="M320 664 c0 -27 5 -56 10 -64 7 -11 9 3 5 44 -7 74 -15 86 -15 20z"/>
<path d="M371 705 c-7 -28 -7 -43 -1 -70 8 -45 17 -16 9 35 -3 25 -7 41 -8 35z"/>
<path d="M1087 704 c-12 -13 18 -164 33 -164 5 0 4 17 -2 38 -6 20 -13 59 -17
85 -3 27 -9 45 -14 41z"/>
<path d="M785 678 c-14 -60 -12 -129 4 -146 9 -10 12 -12 7 -5 -5 7 -6 49 -3
93 6 79 2 102 -8 58z"/>
<path d="M950 676 c0 -12 5 -38 11 -57 6 -19 13 -40 15 -48 3 -8 7 -11 10 -8
3 3 0 25 -7 48 -7 24 -11 54 -10 67 1 12 -2 22 -8 22 -6 0 -11 -11 -11 -24z"/>
<path d="M1180 684 c0 -3 12 -20 27 -38 33 -39 53 -87 53 -126 0 -16 4 -30 10
-30 13 0 4 74 -15 113 -21 44 -75 103 -75 81z"/>
<path d="M1280 684 c0 -5 7 -18 15 -28 8 -11 15 -36 15 -55 0 -25 3 -32 11
-24 13 13 -5 85 -26 103 -8 7 -15 9 -15 4z"/>
<path d="M1330 685 c0 -3 11 -23 25 -45 15 -24 25 -55 25 -77 0 -28 3 -34 10
-23 5 8 7 29 4 45 -6 39 -64 128 -64 100z"/>
<path d="M543 654 c-9 -23 4 -110 21 -141 19 -36 20 -21 1 41 -8 27 -13 64
-11 82 5 36 -1 45 -11 18z"/>
<path d="M818 664 c-17 -27 30 -224 53 -224 4 0 1 19 -8 43 -9 23 -21 76 -27
117 -7 41 -15 70 -18 64z"/>
<path d="M934 623 c8 -55 45 -153 57 -153 5 0 2 17 -7 38 -16 38 -33 89 -40
125 -7 40 -17 31 -10 -10z"/>
<path d="M509 646 c-12 -12 1 -100 17 -116 14 -13 14 -13 8 3 -3 9 -9 40 -13
68 -3 28 -9 48 -12 45z"/>
<path d="M570 603 c0 -29 12 -24 17 7 2 11 -2 20 -7 20 -6 0 -10 -12 -10 -27z"/>
<path d="M608 615 c-7 -7 3 -65 11 -65 4 0 5 16 3 35 -4 36 -5 38 -14 30z"/>
<path d="M886 593 c8 -45 36 -113 45 -108 4 3 1 17 -6 32 -8 14 -17 43 -20 65
-4 21 -11 38 -15 38 -5 0 -7 -12 -4 -27z"/>
<path d="M650 579 c0 -19 5 -41 11 -49 7 -11 9 -4 6 28 -5 53 -17 68 -17 21z"/>
<path d="M1130 605 c0 -11 64 -136 73 -142 11 -7 11 -6 -28 80 -16 37 -33 67
-37 67 -5 0 -8 -2 -8 -5z"/>
<path d="M1194 594 c5 -10 13 -35 18 -54 6 -19 13 -29 15 -23 6 17 -15 81 -29
90 -8 4 -9 0 -4 -13z"/>
<path d="M1530 600 c0 -5 5 -10 11 -10 5 0 7 5 4 10 -3 6 -8 10 -11 10 -2 0
-4 -4 -4 -10z"/>
<path d="M738 575 c2 -14 6 -25 8 -25 2 0 4 11 4 25 0 14 -4 25 -9 25 -4 0 -6
-11 -3 -25z"/>
<path d="M1344 569 c4 -31 -24 -119 -37 -119 -2 0 -2 25 1 55 3 32 0 55 -5 55
-5 0 -9 -15 -8 -32 1 -18 -1 -43 -6 -55 -5 -15 -5 -23 2 -23 6 0 8 -9 4 -21
-12 -38 14 -11 40 41 26 52 30 82 14 115 -7 16 -8 12 -5 -16z"/>
<path d="M714 545 c10 -60 28 -107 23 -56 -4 31 -3 32 10 16 13 -19 18 -9 7
19 -3 9 -10 13 -15 10 -5 -3 -9 6 -9 20 0 14 -5 28 -11 32 -9 5 -10 -6 -5 -41z"/>
<path d="M1447 553 c-5 -7 -6 -13 -3 -13 3 0 -1 -18 -9 -40 -8 -22 -10 -40 -5
-40 11 0 32 65 28 87 -3 13 -6 15 -11 6z"/>
<path d="M1470 536 c0 -15 4 -25 9 -22 10 7 9 31 -2 42 -4 4 -7 -5 -7 -20z"/>
<path d="M590 515 c6 -14 15 -37 20 -51 6 -15 13 -24 16 -21 8 8 -26 97 -37
97 -5 0 -4 -11 1 -25z"/>
<path d="M1008 529 c-4 -9 4 -40 18 -69 13 -28 24 -60 24 -70 0 -11 5 -22 11
-26 15 -9 3 47 -21 101 -10 22 -20 49 -22 60 -3 17 -5 17 -10 4z"/>
<path d="M1095 501 c14 -29 35 -49 35 -36 0 13 -34 65 -42 65 -5 0 -2 -13 7
-29z"/>
<path d="M640 502 c6 -13 14 -21 18 -18 3 4 -2 14 -12 24 -18 16 -18 16 -6 -6z"/>
<path d="M870 508 c0 -9 20 -55 44 -102 25 -48 46 -94 48 -104 2 -11 6 -13 11
-6 4 7 -18 61 -48 120 -30 60 -55 102 -55 92z"/>
<path d="M1046 500 c3 -14 10 -32 15 -40 7 -12 8 -11 9 6 0 11 -7 29 -16 40
-14 18 -15 18 -8 -6z"/>
<path d="M1140 504 c0 -14 74 -127 77 -118 4 12 -59 123 -69 124 -5 0 -8 -3
-8 -6z"/>
<path d="M1237 503 c-4 -6 -3 -14 3 -18 5 -3 10 -23 11 -43 0 -32 2 -34 10
-16 12 23 -12 97 -24 77z"/>
<path d="M1350 468 l-21 -43 26 28 c14 15 25 35 25 43 0 24 -9 16 -30 -28z"/>
<path d="M551 463 c42 -70 59 -107 59 -130 0 -13 4 -23 9 -23 12 0 6 52 -10
82 -25 50 -64 108 -72 108 -5 0 1 -17 14 -37z"/>
<path d="M796 453 c11 -45 26 -64 20 -24 -3 18 -6 37 -6 42 0 5 -5 9 -10 9 -6
0 -8 -11 -4 -27z"/>
<path d="M1379 444 c-10 -20 -12 -33 -6 -31 13 4 41 67 30 67 -5 -1 -15 -16
-24 -36z"/>
<path d="M700 462 c0 -4 4 -12 9 -17 5 -6 14 -26 19 -45 9 -32 10 -33 11 -8 1
30 -18 78 -31 78 -4 0 -8 -4 -8 -8z"/>
<path d="M955 411 c14 -27 25 -55 25 -62 0 -8 5 -21 11 -29 19 -28 -1 63 -24
103 -31 55 -40 45 -12 -12z"/>
<path d="M661 435 c0 -11 6 -33 14 -50 10 -23 13 -25 14 -10 0 11 -6 34 -14
50 -10 23 -13 25 -14 10z"/>
<path d="M762 430 c0 -28 14 -65 20 -55 3 6 0 24 -7 40 -7 17 -13 23 -13 15z"/>
<path d="M1003 430 c4 -8 10 -23 13 -32 4 -10 10 -18 14 -18 13 0 0 38 -18 52
-13 11 -14 11 -9 -2z"/>
<path d="M621 413 c2 -21 38 -86 38 -70 1 10 -6 31 -14 47 -15 29 -26 39 -24
23z"/>
<path d="M848 365 c2 -30 7 -55 11 -55 6 0 7 15 2 93 -1 9 -4 17 -8 17 -5 0
-6 -25 -5 -55z"/>
<path d="M1095 412 c-15 -11 -18 -59 -4 -68 9 -5 10 -2 6 9 -3 9 -2 19 3 22 5
3 11 -3 13 -12 3 -12 5 -10 6 7 1 30 -11 51 -24 42z"/>
<path d="M1140 394 c0 -8 5 -12 10 -9 6 3 10 10 10 16 0 5 -4 9 -10 9 -5 0
-10 -7 -10 -16z"/>
<path d="M1291 379 c-13 -17 -20 -33 -17 -37 6 -6 27 17 47 51 17 29 -6 19
-30 -14z"/>
<path d="M809 357 c4 -17 7 -53 6 -80 -2 -26 1 -47 6 -47 10 0 12 103 3 138
-10 35 -23 26 -15 -11z"/>
<path d="M1181 375 c1 -11 5 -31 9 -45 8 -24 8 -24 9 5 0 17 -4 37 -9 45 -8
12 -10 11 -9 -5z"/>
<path d="M908 374 c-8 -7 2 -44 12 -44 4 0 5 11 2 25 -5 27 -6 28 -14 19z"/>
<path d="M1241 363 c-13 -26 -21 -83 -10 -83 5 0 9 11 9 25 0 14 7 37 16 50
10 15 12 25 6 25 -6 0 -16 -8 -21 -17z"/>
<path d="M744 311 c3 -24 8 -46 11 -49 10 -10 5 63 -6 78 -7 11 -9 3 -5 -29z"/>
<path d="M771 334 c0 -11 3 -14 6 -6 3 7 2 16 -1 19 -3 4 -6 -2 -5 -13z"/>
<path d="M690 328 c0 -7 5 -20 10 -28 8 -12 10 -11 10 7 0 12 -4 25 -10 28 -5
3 -10 0 -10 -7z"/>
<path d="M1116 318 c-12 -37 -14 -78 -6 -78 6 0 10 8 11 18 0 9 3 29 5 45 5
27 -3 38 -10 15z"/>
<path d="M667 290 c3 -11 9 -17 14 -15 10 7 1 35 -11 35 -5 0 -6 -9 -3 -20z"/>
<path d="M889 307 c-3 -39 0 -129 5 -134 3 -4 7 5 7 18 3 44 -1 112 -6 117 -3
3 -5 2 -6 -1z"/>
<path d="M1141 267 c-6 -23 -14 -49 -18 -57 -5 -13 -4 -13 10 0 18 17 39 88
28 94 -4 3 -13 -14 -20 -37z"/>
<path d="M990 270 c0 -11 4 -20 9 -20 5 0 7 9 4 20 -3 11 -7 20 -9 20 -2 0 -4
-9 -4 -20z"/>
<path d="M1036 244 c-4 -27 -14 -59 -22 -71 -8 -13 -10 -23 -5 -23 14 0 21 15
36 70 7 26 9 53 5 60 -4 7 -10 -8 -14 -36z"/>
<path d="M955 244 c8 -19 15 -51 17 -70 1 -19 6 -34 11 -34 11 0 2 78 -14 113
-18 40 -32 33 -14 -9z"/>
</g>
</svg>
